<?xml version="1.0" encoding="UTF-8"?>
<svg xmlns="http://www.w3.org/2000/svg" version="1.1" width="200" height="200" viewBox="100 300 500 500">
    <rect width="1000" height="1000" fill="#ffffff" />
    <g transform="matrix(0.7,0,0,0.7,149.5757575757575,443.30064899410604)">
        <svg version="1.1" viewBox="0 0 396 64" data-background-color="#ffffff" preserveAspectRatio="xMidYMid meet" height="161" width="1000">
            <defs />
            <g id="tight-bounds" transform="matrix(1,0,0,1,0.24000000000003752,0.1983892136398424)">
                <svg viewBox="0 0 395.5199999999999 63.60322157272034" height="63.60322157272034" width="395.5199999999999">
                    <g>
                        <svg viewBox="0 0 531.8239456137519 85.52213857845327" height="63.60322157272034" width="395.5199999999999">
                            <g transform="matrix(1,0,0,1,136.30394561375192,11.81962986142154)">
                                <svg viewBox="0 0 395.52 61.88287885561019" height="61.88287885561019" width="395.52">
                                    <g>
                                        <svg viewBox="0 0 395.52 61.88287885561019" height="61.88287885561019" width="395.52">
                                            <g>
                                                <svg viewBox="0 0 395.52 61.88287885561019" height="61.88287885561019" width="395.52">
                                                    <g transform="matrix(1,0,0,1,0,0)">
                                                        <svg width="395.52" viewBox="4.15 -35 222.44 35" height="61.88287885561019" data-palette-color="#4b91f1">
                                                            <g class="undefined-text-0" id="text-0">
                                                                <path d="M13.95-35L13.95-35Q21.5-35 25.53-32.25 29.55-29.5 29.55-23.65L29.55-23.65Q29.55-20.6 28.48-18.43 27.4-16.25 25.35-14.88 23.3-13.5 20.35-12.85 17.4-12.2 13.6-12.2L13.6-12.2 10.45-12.2 10.45 0 4.15 0 4.15-34.15Q6.35-34.65 9.03-34.83 11.7-35 13.95-35ZM14.4-29.55L14.4-29.55Q12-29.55 10.45-29.4L10.45-29.4 10.45-17.6 13.5-17.6Q18.05-17.6 20.5-18.88 22.95-20.15 22.95-23.7L22.95-23.7Q22.95-25.4 22.3-26.55 21.65-27.7 20.5-28.35 19.35-29 17.78-29.28 16.2-29.55 14.4-29.55ZM41.6-5.45L57.2-5.45 57.2 0 35.3 0 35.3-34.65 41.6-34.65 41.6-5.45ZM91.8 0L85 0Q84.3-2.05 83.55-4.05 82.8-6.05 82.09-8.15L82.09-8.15 67.5-8.15Q66.8-6.05 66.07-4.03 65.34-2 64.65 0L64.65 0 58.1 0Q60.05-5.55 61.8-10.25 63.55-14.95 65.22-19.15 66.9-23.35 68.55-27.15 70.2-30.95 71.95-34.65L71.95-34.65 77.9-34.65Q79.65-30.95 81.3-27.15 82.95-23.35 84.62-19.15 86.3-14.95 88.07-10.25 89.84-5.55 91.8 0L91.8 0ZM74.8-27.95L74.8-27.95Q73.65-25.3 72.17-21.5 70.7-17.7 69.09-13.25L69.09-13.25 80.5-13.25Q78.9-17.7 77.4-21.55 75.9-25.4 74.8-27.95ZM124.89 0L119.54 0Q117.84-2.85 115.74-6.13 113.64-9.4 111.39-12.73 109.14-16.05 106.82-19.18 104.49-22.3 102.39-24.8L102.39-24.8 102.39 0 96.19 0 96.19-34.65 101.34-34.65Q103.34-32.55 105.64-29.68 107.94-26.8 110.27-23.7 112.59-20.6 114.77-17.48 116.94-14.35 118.64-11.65L118.64-11.65 118.64-34.65 124.89-34.65 124.89 0ZM161.89 0L156.54 0Q154.84-2.85 152.74-6.13 150.64-9.4 148.39-12.73 146.14-16.05 143.82-19.18 141.49-22.3 139.39-24.8L139.39-24.8 139.39 0 133.19 0 133.19-34.65 138.34-34.65Q140.34-32.55 142.64-29.68 144.94-26.8 147.27-23.7 149.59-20.6 151.77-17.48 153.94-14.35 155.64-11.65L155.64-11.65 155.64-34.65 161.89-34.65 161.89 0ZM193.64 0L170.19 0 170.19-34.65 192.44-34.65 192.44-29.3 176.49-29.3 176.49-20.75 190.69-20.75 190.69-15.5 176.49-15.5 176.49-5.35 193.64-5.35 193.64 0ZM209.04-35L209.04-35Q216.54-35 220.51-32.25 224.49-29.5 224.49-23.85L224.49-23.85Q224.49-16.8 217.54-14.3L217.54-14.3Q218.49-13.15 219.69-11.5 220.89-9.85 222.14-7.93 223.39-6 224.54-3.98 225.69-1.95 226.59 0L226.59 0 219.54 0Q218.59-1.8 217.49-3.63 216.39-5.45 215.26-7.18 214.14-8.9 213.04-10.43 211.94-11.95 210.99-13.15L210.99-13.15Q210.29-13.1 209.79-13.1 209.29-13.1 208.84-13.1L208.84-13.1 205.79-13.1 205.79 0 199.49 0 199.49-34.15Q201.79-34.65 204.39-34.83 206.99-35 209.04-35ZM209.49-29.55L209.49-29.55Q207.49-29.55 205.79-29.4L205.79-29.4 205.79-18.2 208.54-18.2Q210.84-18.2 212.59-18.45 214.34-18.7 215.51-19.35 216.69-20 217.29-21.1 217.89-22.2 217.89-23.9L217.89-23.9Q217.89-25.5 217.29-26.6 216.69-27.7 215.56-28.35 214.44-29 212.89-29.28 211.34-29.55 209.49-29.55Z" fill="#4b91f1" />
                                                            </g>
                                                        </svg>
                                                    </g>
                                                </svg>
                                            </g>
                                        </svg>
                                    </g>
                                </svg>
                            </g>
                            <g>
                                <svg viewBox="0 0 121.69488310503488 85.52213857845327" height="85.52213857845327" width="121.69488310503488">
                                    <g>
                                        <svg xmlns:xlink="http://www.w3.org/1999/xlink" version="1.1" x="0" y="0" viewBox="1 15.472 97.002 68.16900000000001" enable-background="new 0 0 100 100" xml:space="preserve" height="85.52213857845327" width="121.69488310503488" class="icon-icon-0" id="icon-0">
<g fill="#4b91f1">
<g fill="#4b91f1">
<polygon points="1,83.641 34.287,71.758 39.744,15.472 15.743,27.12   " fill="#4b91f1">
</polygon>
    <polygon points="63.988,27.617 68.854,83.641 98.002,71.862 83.851,16.075   " fill="#4b91f1">
</polygon>
    <polygon points="40.909,15.488 35.971,71.758 67.063,83.641 62.713,27.604   " fill="#4b91f1" />
</g>
</g>
</svg>
                                    </g>
                                </svg>
                            </g>
                        </svg>
                    </g>
                </svg>
                <rect width="395.5199999999999" height="63.60322157272034" fill="none" stroke="none" visibility="hidden" />
            </g>
        </svg>
    </g>
</svg>